<svg width="100" height="100" viewBox="0 0 100 100" fill="none" xmlns="http://www.w3.org/2000/svg">
<path d="M100 0H0V100H100V0Z" fill="white"/>
<mask id="mask0_2_87" style="mask-type:luminance" maskUnits="userSpaceOnUse" x="28" y="18" width="44" height="43">
<path d="M71.2556 18.3673H28.7386V60.8843H71.2556V18.3673Z" fill="white"/>
</mask>
<g mask="url(#mask0_2_87)">
<path d="M46.4024 47.8323L35.6609 54.7945C35.6133 54.8252 35.5997 54.8888 35.6306 54.936L36.3446 56.0374C36.3752 56.085 36.4384 56.0986 36.4861 56.0677L47.2276 49.1054C47.2748 49.0748 47.2884 49.0112 47.2578 48.9639L46.5439 47.8626C46.5129 47.815 46.4497 47.8013 46.4024 47.8323Z" fill="black"/>
<path d="M44.401 46.6218L32.2235 50.5667C32.1697 50.584 32.1402 50.6418 32.1576 50.6956L32.5621 51.9442C32.5796 51.9983 32.6373 52.0275 32.6911 52.0102L44.8687 48.0653C44.9224 48.0479 44.9517 47.9901 44.9343 47.9364L44.5299 46.6877C44.5126 46.634 44.4548 46.6044 44.401 46.6218Z" fill="black"/>
<path d="M42.7813 44.935L29.9978 45.5935C29.9413 45.5966 29.8979 45.6449 29.9008 45.7014L29.9683 47.0119C29.9713 47.0684 30.0194 47.1119 30.0758 47.1092L42.8595 46.4503C42.916 46.4473 42.9592 46.3993 42.9565 46.3429L42.8888 45.032C42.8861 44.9755 42.8378 44.932 42.7813 44.935Z" fill="black"/>
<path d="M41.6537 42.8861L29.1351 40.2139C29.0798 40.202 29.0254 40.2374 29.0136 40.2925L28.7396 41.5762C28.7278 41.6316 28.7631 41.6861 28.8184 41.6976L41.3367 44.3701C41.3922 44.382 41.4466 44.3466 41.4582 44.2912L41.7323 43.0078C41.7442 42.9524 41.7088 42.898 41.6537 42.8861Z" fill="black"/>
<path d="M41.0935 40.6163L29.6934 34.7949C29.643 34.7694 29.5814 34.7891 29.5556 34.8398L28.9587 36.0085C28.933 36.0588 28.953 36.1207 29.0034 36.1462L40.4037 41.9677C40.4541 41.9932 40.5156 41.9735 40.5415 41.9231L41.1381 40.7541C41.1639 40.7037 41.1439 40.6418 41.0935 40.6163Z" fill="black"/>
<path d="M41.1412 38.2782L31.6359 29.7046C31.5939 29.6668 31.5292 29.6701 31.4914 29.7121L30.6122 30.6867C30.5744 30.7287 30.5777 30.7935 30.6197 30.8313L40.1248 39.4048C40.1667 39.4429 40.2316 39.4395 40.2694 39.3973L41.1486 38.4228C41.1864 38.3806 41.183 38.316 41.1412 38.2782Z" fill="black"/>
<path d="M41.7922 36.0316L34.8296 25.29C34.799 25.2426 34.7357 25.229 34.6881 25.2598L33.5867 25.9737C33.5392 26.0045 33.5257 26.0679 33.5565 26.1153L40.5187 36.8568C40.5497 36.9041 40.6129 36.9177 40.6602 36.8871L41.7619 36.1731C41.8092 36.1422 41.8228 36.0789 41.7922 36.0316Z" fill="black"/>
<path d="M43.0017 34.0313L39.0565 21.8538C39.0391 21.8 38.9813 21.7706 38.9275 21.788L37.6789 22.1925C37.6252 22.2099 37.5956 22.2677 37.6133 22.3214L41.5582 34.499C41.5755 34.5527 41.6333 34.5823 41.6871 34.5646L42.9357 34.1602C42.9895 34.1429 43.019 34.085 43.0017 34.0313Z" fill="black"/>
<path d="M44.6871 32.4113L44.0282 19.6278C44.0255 19.5713 43.9772 19.5279 43.9207 19.5308L42.6099 19.5984C42.5534 19.6013 42.5102 19.6494 42.5129 19.7058L43.1718 32.4894C43.1748 32.5459 43.2228 32.5893 43.2792 32.5864L44.5901 32.5188C44.6466 32.5159 44.6901 32.4678 44.6871 32.4113Z" fill="black"/>
<path d="M46.7354 31.2825L49.4075 18.7641C49.4194 18.7088 49.3843 18.6544 49.3289 18.6426L48.0452 18.3685C47.9898 18.3567 47.9357 18.392 47.9238 18.4473L45.2514 30.9658C45.2398 31.021 45.2748 31.0754 45.3303 31.0872L46.6139 31.3613C46.669 31.3731 46.7235 31.3378 46.7354 31.2825Z" fill="black"/>
<path d="M49.0061 30.723L54.8272 19.3227C54.8531 19.2723 54.833 19.2107 54.7826 19.185L53.6136 18.588C53.5633 18.5623 53.5017 18.5823 53.4758 18.6327L47.6548 30.0329C47.6289 30.0833 47.649 30.1449 47.6993 30.1706L48.8684 30.7676C48.9187 30.7933 48.9803 30.7733 49.0061 30.723Z" fill="black"/>
<path d="M51.3432 30.7694L59.9167 21.2643C59.9548 21.2223 59.9514 21.1576 59.9095 21.1197L58.9347 20.2406C58.8929 20.2027 58.8279 20.206 58.7901 20.248L50.2167 29.7532C50.1789 29.7951 50.182 29.8599 50.2242 29.8977L51.1986 30.7769C51.2408 30.8147 51.3054 30.8114 51.3432 30.7694Z" fill="black"/>
<path d="M53.5901 31.4201L64.3316 24.4579C64.3792 24.4271 64.3925 24.3637 64.3619 24.3163L63.648 23.2148C63.6173 23.1674 63.5537 23.1538 63.5065 23.1846L52.765 30.1469C52.7173 30.1776 52.7037 30.241 52.7347 30.2885L53.4486 31.3899C53.4793 31.4374 53.5429 31.4509 53.5901 31.4201Z" fill="black"/>
<path d="M55.6211 32.7307L67.7816 28.7625C67.8354 28.745 67.8646 28.6873 67.8469 28.6335L67.4401 27.3866C67.4228 27.3329 67.365 27.3036 67.3112 27.3211L55.1507 31.2892C55.0969 31.3068 55.0677 31.3645 55.085 31.4182L55.4922 32.6652C55.5095 32.7189 55.5673 32.7482 55.6211 32.7307Z" fill="black"/>
<path d="M57.2126 34.3153L69.9963 33.6564C70.0527 33.6535 70.0959 33.6054 70.0932 33.5489L70.0255 32.2381C70.0228 32.1816 69.9745 32.1382 69.918 32.1411L57.1344 32.7999C57.0779 32.8028 57.0347 32.8509 57.0374 32.9074L57.1051 34.2184C57.1082 34.2748 57.1561 34.318 57.2126 34.3153Z" fill="black"/>
<path d="M58.3408 36.3639L70.8592 39.0361C70.9146 39.048 70.9687 39.0126 70.9806 38.9575L71.2548 37.6738C71.2667 37.6184 71.2313 37.5639 71.1759 37.5524L58.6575 34.8799C58.602 34.868 58.548 34.9034 58.5361 34.9588L58.2619 36.2425C58.2503 36.2976 58.2854 36.352 58.3408 36.3639Z" fill="black"/>
<path d="M58.9007 38.6347L70.301 44.4561C70.3514 44.4816 70.4129 44.4619 70.4388 44.4116L71.0357 43.2425C71.0612 43.1922 71.0415 43.1306 70.9912 43.1047L59.5908 37.2833C59.5405 37.2578 59.4786 37.2779 59.4531 37.3282L58.8561 38.4969C58.8303 38.5476 58.8503 38.6092 58.9007 38.6347Z" fill="black"/>
<path d="M58.8544 40.9728L68.3595 49.5463C68.4014 49.5844 68.466 49.581 68.5041 49.5388L69.383 48.5643C69.4211 48.5225 69.4177 48.4575 69.3758 48.4197L59.8704 39.8463C59.8286 39.8082 59.7639 39.8116 59.7258 39.8537L58.8469 40.8282C58.8088 40.8704 58.8122 40.935 58.8544 40.9728Z" fill="black"/>
<path d="M58.2041 43.2194L65.1663 53.9609C65.1973 54.0085 65.2606 54.0221 65.3078 53.9912L66.4095 53.2772C66.4568 53.2466 66.4704 53.183 66.4398 53.1357L59.4772 42.3942C59.4466 42.3466 59.3833 42.3333 59.3357 42.364L58.2344 43.0779C58.1867 43.1085 58.1735 43.1721 58.2041 43.2194Z" fill="black"/>
<path d="M56.8677 45.2102L60.8361 57.3707C60.8534 57.4245 60.9112 57.4537 60.965 57.436L62.2119 57.0292C62.2656 57.0115 62.2949 56.9541 62.2775 56.9003L58.3092 44.7398C58.2918 44.686 58.234 44.6568 58.1803 44.6741L56.9333 45.0813C56.8796 45.0986 56.8503 45.1564 56.8677 45.2102Z" fill="black"/>
<path d="M55.3075 46.8418L55.9663 59.6255C55.9691 59.682 56.0173 59.7255 56.0738 59.7225L57.3847 59.6551C57.4412 59.6521 57.4844 59.6038 57.4816 59.5473L56.8228 46.764C56.8197 46.7075 56.7718 46.664 56.7153 46.667L55.4044 46.7344C55.348 46.7374 55.3044 46.7854 55.3075 46.8418Z" fill="black"/>
<path d="M53.2582 47.9704L50.5861 60.4888C50.5742 60.5439 50.6095 60.5983 50.6646 60.6102L51.9483 60.8844C52.0037 60.8959 52.0582 60.8609 52.0697 60.8054L54.7422 48.2871C54.7541 48.2316 54.7187 48.1772 54.6633 48.1656L53.3796 47.8915C53.3245 47.8796 53.2701 47.915 53.2582 47.9704Z" fill="black"/>
<path d="M50.9874 48.5292L45.1663 59.9296C45.1405 59.9799 45.1605 60.0415 45.2109 60.0673L46.3799 60.6643C46.4303 60.6901 46.4918 60.6701 46.5177 60.6197L52.3388 49.2194C52.3646 49.169 52.3446 49.1075 52.2942 49.0816L51.1252 48.4847C51.0748 48.4592 51.0133 48.4789 50.9874 48.5292Z" fill="black"/>
<path d="M48.6486 48.4827L40.0752 57.9881C40.0374 58.0299 40.0408 58.0946 40.0827 58.1327L41.0575 59.0116C41.0993 59.0497 41.1643 59.0463 41.202 59.0041L49.7755 49.499C49.8133 49.4571 49.8099 49.3925 49.768 49.3544L48.7935 48.4755C48.7514 48.4374 48.6867 48.4408 48.6486 48.4827Z" fill="black"/>
</g>
<path d="M18.8502 81.4796C18.5101 81.1071 18.4616 80.5891 18.332 79.0833C18.2187 77.885 17.6196 77.2051 16.4539 76.9782C17.7006 76.8163 18.7045 75.9258 18.7045 74.3877C18.7045 72.4935 17.4253 71.2789 14.8186 71.2789H10.2041V81.4796H12.1956V77.7068H14.5919C15.7577 77.7068 16.2757 78.2252 16.3567 79.3745C16.4377 80.5082 16.5672 81.2041 16.7777 81.4796H18.8502ZM12.1956 76.1201V72.9143H14.5433C16.0167 72.9143 16.6967 73.5136 16.6967 74.5333C16.6967 75.6343 16.0167 76.1201 14.5433 76.1201H12.1956Z" fill="#1F1F1F"/>
<path d="M21.9468 77.9173C21.9468 76.5575 22.5621 75.6184 23.744 75.6184C24.9422 75.6184 25.5575 76.5575 25.5575 77.9173C25.5575 79.2612 24.9422 80.2003 23.744 80.2003C22.5621 80.2003 21.9468 79.2612 21.9468 77.9173ZM27.5166 77.9173C27.5166 75.6993 25.9622 74.1449 23.744 74.1449C21.5421 74.1449 19.9877 75.6993 19.9877 77.9173C19.9877 80.1357 21.5421 81.6738 23.744 81.6738C25.9622 81.6738 27.5166 80.1357 27.5166 77.9173Z" fill="#1F1F1F"/>
<path d="M33.8255 78.1602C33.8255 79.3745 33.2426 80.1517 32.2873 80.1517C31.332 80.1517 30.9272 79.5041 30.9272 78.4194V74.3391H28.9843V78.8078C28.9843 80.3946 29.6319 81.6738 31.5263 81.6738C32.6111 81.6738 33.4531 81.1394 33.8255 80.3136V81.4796H35.7684V74.3391H33.8255V78.1602Z" fill="#1F1F1F"/>
<path d="M39.6806 77.6585C39.6806 76.4602 40.2959 75.683 41.2837 75.683C42.2388 75.683 42.6759 76.3146 42.6759 77.4156V81.4796H44.619V77.0269C44.619 75.4401 43.9228 74.1449 42.0122 74.1449C40.9435 74.1449 40.0367 74.6952 39.6806 75.5051V74.3391H37.7378V81.4796H39.6806V77.6585Z" fill="#1F1F1F"/>
<path d="M51.7833 78.0469C51.7833 79.3585 50.9898 80.1517 49.8888 80.1517C48.6745 80.1517 48.0432 79.2612 48.0432 77.9173C48.0432 76.5575 48.6745 75.667 49.8888 75.667C50.9898 75.667 51.7833 76.4765 51.7833 77.7718V78.0469ZM51.767 81.4796H53.7099V71.2789H51.767V75.7153C51.4432 74.8411 50.5691 74.1449 49.3061 74.1449C47.185 74.1449 46.084 75.8126 46.084 77.9173C46.084 80.0224 47.185 81.6738 49.3061 81.6738C50.5691 81.6738 51.4432 80.9775 51.767 80.1194V81.4796Z" fill="#1F1F1F"/>
<path d="M55.9102 79.666C55.9102 81.1881 56.8333 81.6738 57.9344 81.6738C58.8085 81.6738 59.3915 81.4469 59.9095 81.0585V79.7793C59.4884 79.9738 59.0837 80.1194 58.6952 80.1194C58.1122 80.1194 57.8371 79.8442 57.8371 79.2289V75.6993H59.7799V74.3391H57.8371V72.364H56.6551L56.4286 73.3354C56.2667 73.9993 56.0721 74.3555 55.3758 74.4687L54.8901 74.5497V75.6993H55.9102V79.666Z" fill="#1F1F1F"/>
<path d="M65.6262 78.3871C65.6262 79.5364 64.849 80.3136 63.8289 80.3136C63.2139 80.3136 62.8415 80.0225 62.8415 79.5364C62.8415 78.8242 63.4405 78.6786 64.2823 78.5003L65.6262 78.2088V78.3871ZM67.5208 76.8973C67.5208 75.0191 66.3065 74.1449 64.4606 74.1449C62.566 74.1449 61.449 75.165 61.2061 76.6221L62.9711 76.784C63.133 76.0878 63.5701 75.602 64.3796 75.602C65.2054 75.602 65.6262 76.0878 65.6262 76.8813V77.0432L63.667 77.4316C62.048 77.7554 60.9469 78.3221 60.9469 79.6823C60.9469 80.9129 61.8537 81.6575 63.3432 81.6575C64.3959 81.6575 65.3673 81.2204 65.7721 80.3946C65.95 81.1718 66.4684 81.6415 67.2779 81.6415C67.9255 81.6415 68.314 81.431 68.6218 81.1881V80.1517C68.4112 80.249 68.217 80.2976 68.0225 80.2976C67.715 80.2976 67.5208 80.1194 67.5208 79.7469V76.8973Z" fill="#1F1F1F"/>
<path d="M71.7925 77.7718C71.7925 76.4765 72.5697 75.667 73.6707 75.667C74.901 75.667 75.5327 76.5575 75.5327 77.9173C75.5327 79.2612 74.901 80.1517 73.6707 80.1517C72.5697 80.1517 71.7925 79.3585 71.7925 78.0469V77.7718ZM71.7116 80.1034C72.084 80.9939 72.9905 81.6738 74.2374 81.6738C76.3745 81.6738 77.4918 80.0224 77.4918 77.9173C77.4918 75.8126 76.3745 74.1449 74.2697 74.1449C72.9905 74.1449 72.1323 74.8411 71.8085 75.7153V71.2789H69.8656V81.4796H71.3554L71.7116 80.1034Z" fill="#1F1F1F"/>
<path d="M79.0442 71.2789V81.4796H80.9871V71.2789H79.0442Z" fill="#1F1F1F"/>
<path d="M88.1711 78.9861C87.8959 79.7956 87.3293 80.2003 86.3738 80.2003C85.3214 80.2003 84.4956 79.4554 84.431 78.4031H89.7901V77.7068C89.7901 75.7639 88.5922 74.1449 86.2605 74.1449C84.1231 74.1449 82.5204 75.7639 82.5204 78.0146C82.5204 80.2653 84.1071 81.6738 86.3092 81.6738C88.1388 81.6738 89.3694 80.7347 89.7415 79.148L88.1711 78.9861ZM84.4633 77.1888C84.6415 76.2983 85.1759 75.5697 86.2442 75.5697C87.3293 75.5697 87.831 76.3629 87.8959 77.1888H84.4633Z" fill="#1F1F1F"/>
</svg>
