<svg width="44" height="43" viewBox="0 0 44 43" fill="none" xmlns="http://www.w3.org/2000/svg">
<mask id="mask0_2_33" style="mask-type:luminance" maskUnits="userSpaceOnUse" x="0" y="0" width="44" height="43">
<path d="M43.2556 0.36734H0.73864V42.8843H43.2556V0.36734Z" fill="white"/>
</mask>
<g mask="url(#mask0_2_33)">
<path d="M18.4024 29.8323L7.66088 36.7945C7.61327 36.8252 7.59966 36.8888 7.63061 36.936L8.34456 38.0374C8.37517 38.085 8.43843 38.0986 8.48605 38.0677L19.2276 31.1054C19.2748 31.0748 19.2884 31.0112 19.2578 30.9639L18.5439 29.8626C18.5129 29.815 18.4497 29.8013 18.4024 29.8323Z" fill="black"/>
<path d="M16.401 28.6218L4.22346 32.5667C4.16969 32.584 4.1402 32.6418 4.15762 32.6956L4.56214 33.9442C4.57959 33.9983 4.63731 34.0275 4.69108 34.0102L16.8687 30.0653C16.9224 30.0479 16.9517 29.9901 16.9343 29.9364L16.5299 28.6877C16.5126 28.634 16.4548 28.6044 16.401 28.6218Z" fill="black"/>
<path d="M14.7813 26.935L1.99775 27.5935C1.94129 27.5966 1.89789 27.6449 1.90078 27.7014L1.96833 29.0119C1.97126 29.0684 2.01938 29.1119 2.07584 29.1092L14.8595 28.4503C14.916 28.4473 14.9592 28.3993 14.9565 28.3429L14.8888 27.032C14.8861 26.9755 14.8378 26.932 14.7813 26.935Z" fill="black"/>
<path d="M13.6537 24.8861L1.13511 22.2139C1.07983 22.202 1.02545 22.2374 1.01364 22.2925L0.739628 23.5762C0.727825 23.6316 0.763063 23.6861 0.818369 23.6976L13.3367 26.3701C13.3922 26.382 13.4466 26.3466 13.4582 26.2912L13.7323 25.0078C13.7442 24.9524 13.7088 24.898 13.6537 24.8861Z" fill="black"/>
<path d="M13.0935 22.6163L1.6934 16.7949C1.64303 16.7694 1.58136 16.7891 1.55565 16.8398L0.958741 18.0085C0.933027 18.0588 0.952991 18.1207 1.00337 18.1462L12.4037 23.9677C12.4541 23.9932 12.5156 23.9735 12.5415 23.9231L13.1381 22.7541C13.1639 22.7037 13.1439 22.6418 13.0935 22.6163Z" fill="black"/>
<path d="M13.1412 20.2782L3.63592 11.7046C3.59394 11.6668 3.52922 11.6701 3.49136 11.7121L2.61221 12.6867C2.57435 12.7287 2.57768 12.7935 2.61966 12.8313L12.1248 21.4048C12.1667 21.4429 12.2316 21.4395 12.2694 21.3973L13.1486 20.4228C13.1864 20.3806 13.183 20.316 13.1412 20.2782Z" fill="black"/>
<path d="M13.7922 18.0316L6.82959 7.29003C6.79898 7.24258 6.73571 7.22904 6.68809 7.25979L5.5867 7.9737C5.53925 8.00445 5.52571 8.06785 5.55649 8.1153L12.5187 18.8568C12.5497 18.9041 12.6129 18.9177 12.6602 18.8871L13.7619 18.1731C13.8092 18.1422 13.8228 18.0789 13.7922 18.0316Z" fill="black"/>
<path d="M15.0017 16.0313L11.0565 3.85381C11.0391 3.80004 10.9813 3.77058 10.9275 3.788L9.67891 4.19252C9.62517 4.20994 9.59558 4.26766 9.61326 4.32143L13.5582 16.499C13.5755 16.5527 13.6333 16.5823 13.6871 16.5646L14.9357 16.1602C14.9895 16.1429 15.019 16.085 15.0017 16.0313Z" fill="black"/>
<path d="M16.6871 14.4113L16.0282 1.62778C16.0255 1.57132 15.9772 1.52788 15.9207 1.53081L14.6099 1.59836C14.5534 1.60125 14.5102 1.64938 14.5129 1.70584L15.1718 14.4894C15.1748 14.5459 15.2228 14.5893 15.2792 14.5864L16.5901 14.5188C16.6466 14.5159 16.6901 14.4678 16.6871 14.4113Z" fill="black"/>
<path d="M18.7354 13.2825L21.4075 0.76406C21.4194 0.708753 21.3843 0.654365 21.3289 0.642563L20.0452 0.368549C19.9898 0.356747 19.9357 0.391984 19.9238 0.44729L17.2514 12.9658C17.2398 13.021 17.2748 13.0754 17.3303 13.0872L18.6139 13.3613C18.669 13.3731 18.7235 13.3378 18.7354 13.2825Z" fill="black"/>
<path d="M21.0061 12.723L26.8272 1.32269C26.8531 1.27235 26.833 1.21068 26.7826 1.18497L25.6136 0.58803C25.5633 0.562316 25.5017 0.582315 25.4758 0.632655L19.6548 12.0329C19.6289 12.0833 19.649 12.1449 19.6993 12.1706L20.8684 12.7676C20.9187 12.7933 20.9803 12.7733 21.0061 12.723Z" fill="black"/>
<path d="M23.3432 12.7694L31.9167 3.26426C31.9548 3.22229 31.9514 3.15756 31.9095 3.1197L30.9347 2.24055C30.8929 2.20269 30.8279 2.20603 30.7901 2.248L22.2167 11.7532C22.1789 11.7951 22.182 11.8599 22.2242 11.8977L23.1986 12.7769C23.2408 12.8147 23.3054 12.8114 23.3432 12.7694Z" fill="black"/>
<path d="M25.5901 13.4201L36.3316 6.45786C36.3792 6.42711 36.3925 6.36371 36.3619 6.31626L35.648 5.21484C35.6173 5.16739 35.5537 5.15385 35.5065 5.1846L24.765 12.1469C24.7173 12.1776 24.7037 12.241 24.7347 12.2885L25.4486 13.3899C25.4793 13.4374 25.5429 13.4509 25.5901 13.4201Z" fill="black"/>
<path d="M27.6211 14.7307L39.7816 10.7625C39.8354 10.745 39.8646 10.6873 39.8469 10.6335L39.4401 9.38659C39.4228 9.33288 39.365 9.30356 39.3112 9.32108L27.1507 13.2892C27.0969 13.3068 27.0677 13.3645 27.085 13.4182L27.4922 14.6652C27.5095 14.7189 27.5673 14.7482 27.6211 14.7307Z" fill="black"/>
<path d="M29.2126 16.3153L41.9963 15.6564C42.0527 15.6535 42.0959 15.6054 42.0932 15.5489L42.0255 14.2381C42.0228 14.1816 41.9745 14.1382 41.918 14.1411L29.1344 14.7999C29.0779 14.8028 29.0347 14.8509 29.0374 14.9074L29.1051 16.2184C29.1082 16.2748 29.1561 16.318 29.2126 16.3153Z" fill="black"/>
<path d="M30.3408 18.3639L42.8592 21.0361C42.9146 21.048 42.9687 21.0126 42.9806 20.9575L43.2548 19.6738C43.2667 19.6184 43.2313 19.5639 43.1759 19.5524L30.6575 16.8799C30.602 16.868 30.548 16.9034 30.5361 16.9588L30.2619 18.2425C30.2503 18.2976 30.2854 18.352 30.3408 18.3639Z" fill="black"/>
<path d="M30.9007 20.6347L42.301 26.4561C42.3514 26.4816 42.4129 26.4619 42.4388 26.4116L43.0357 25.2425C43.0612 25.1922 43.0415 25.1306 42.9912 25.1047L31.5908 19.2833C31.5405 19.2578 31.4786 19.2779 31.4531 19.3282L30.8561 20.4969C30.8303 20.5476 30.8503 20.6092 30.9007 20.6347Z" fill="black"/>
<path d="M30.8544 22.9728L40.3595 31.5463C40.4014 31.5844 40.466 31.581 40.5041 31.5388L41.383 30.5643C41.4211 30.5225 41.4177 30.4575 41.3758 30.4197L31.8704 21.8463C31.8286 21.8082 31.7639 21.8116 31.7258 21.8537L30.8469 22.8282C30.8088 22.8704 30.8122 22.935 30.8544 22.9728Z" fill="black"/>
<path d="M30.2041 25.2194L37.1663 35.9609C37.1973 36.0085 37.2606 36.0221 37.3078 35.9912L38.4095 35.2772C38.4568 35.2466 38.4704 35.183 38.4398 35.1357L31.4772 24.3942C31.4466 24.3466 31.3833 24.3333 31.3357 24.364L30.2344 25.0779C30.1867 25.1085 30.1735 25.1721 30.2041 25.2194Z" fill="black"/>
<path d="M28.8677 27.2102L32.8361 39.3707C32.8534 39.4245 32.9112 39.4537 32.965 39.436L34.2119 39.0292C34.2656 39.0115 34.2949 38.9541 34.2775 38.9003L30.3092 26.7398C30.2918 26.686 30.234 26.6568 30.1803 26.6741L28.9333 27.0813C28.8796 27.0986 28.8503 27.1564 28.8677 27.2102Z" fill="black"/>
<path d="M27.3075 28.8418L27.9663 41.6255C27.9691 41.682 28.0173 41.7255 28.0738 41.7225L29.3847 41.6551C29.4412 41.6521 29.4844 41.6038 29.4816 41.5473L28.8228 28.764C28.8197 28.7075 28.7718 28.664 28.7153 28.667L27.4044 28.7344C27.348 28.7374 27.3044 28.7854 27.3075 28.8418Z" fill="black"/>
<path d="M25.2582 29.9704L22.5861 42.4888C22.5742 42.5439 22.6095 42.5983 22.6646 42.6102L23.9483 42.8844C24.0037 42.8959 24.0582 42.8609 24.0697 42.8054L26.7422 30.2871C26.7541 30.2316 26.7187 30.1772 26.6633 30.1656L25.3796 29.8915C25.3245 29.8796 25.2701 29.915 25.2582 29.9704Z" fill="black"/>
<path d="M22.9874 30.5292L17.1663 41.9296C17.1405 41.9799 17.1605 42.0415 17.2109 42.0673L18.3799 42.6643C18.4303 42.6901 18.4918 42.6701 18.5177 42.6197L24.3388 31.2194C24.3646 31.169 24.3446 31.1075 24.2942 31.0816L23.1252 30.4847C23.0748 30.4592 23.0133 30.4789 22.9874 30.5292Z" fill="black"/>
<path d="M20.6486 30.4827L12.0752 39.9881C12.0374 40.0299 12.0408 40.0946 12.0827 40.1327L13.0575 41.0116C13.0993 41.0497 13.1643 41.0463 13.202 41.0041L21.7755 31.499C21.8133 31.4571 21.8099 31.3925 21.768 31.3544L20.7935 30.4755C20.7514 30.4374 20.6867 30.4408 20.6486 30.4827Z" fill="black"/>
</g>
</svg>
